Genre:Action | Adventure | Sci-Fi
Language:English
 
http://www.imdb.com/title/tt1399103/

Source:IMAGINE Thanks!

Format : MPEG-4
Format profile : Base Media
Codec ID : isom
File size : 1.66 GiB
Duration : 2h 25mn
Overall bit rate : 1 633 Kbps

Video
ID : 1
Format : AVC
Format/Info : Advanced Video Codec
Format profile : High@L4.1
Format settings, CABAC : Yes
Format settings, ReFrames : 3 frames
Codec ID : avc1
Codec ID/Info : Advanced Video Coding
Duration : 2h 25mn
Bit rate mode : Variable
Bit rate : 1 400 Kbps
Maximum bit rate : 4 893 Kbps
Width : 720 pixels
Height : 288 pixels
Display aspect ratio : 2.500
Frame rate mode : Constant
Frame rate : 23.976 fps
Color space : YUV
Chroma subsampling : 4:2:0
Bit depth : 8 bits
Scan type : Progressive
Bits/(Pixel*Frame) : 0.282
Stream size : 1.43 GiB (86%)
Writing library : x264

Audio
ID : 2
Format : AAC
Format/Info : Advanced Audio Codec
Format version : Version 4
Format profile : LC
Format settings, SBR : No
Codec ID : 40
Duration : 2h 25mn
Bit rate mode : Variable
Bit rate : 224 Kbps
Maximum bit rate : 270 Kbps
Channel(s) : 2 channels
Channel positions : Front: L R
Sampling rate : 44.1 KHz
Stream size : 234 MiB (14%)


Plot:
The Autobots learn of a Cybertronian spacecraft hidden on the Moon, and race against the Decepticons to reach it and to learn its secrets
 
http://leetleech.org/images/98330714232409602913.png
 
http://leetleech.org/images/11275162409980858336.png
 
http://leetleech.org/images/72781757418785799993.png
 
http://leetleech.org/images/70051717170787995325.png
 
http://leetleech.org/images/07521271630121283004.png

